<svg xmlns="http://www.w3.org/2000/svg" xmlns:xlink="http://www.w3.org/1999/xlink" viewBox="0 0 444.78 95.68"><defs><style>.cls-1{fill:url(#linear-gradient);}.cls-2{fill:url(#linear-gradient-2);}.cls-3{fill:url(#linear-gradient-3);}.cls-4{fill:url(#linear-gradient-4);}.cls-5{fill:url(#linear-gradient-5);}</style><linearGradient id="linear-gradient" y1="47.84" x2="102.18" y2="47.84" gradientUnits="userSpaceOnUse"><stop offset="0.38" stop-color="#ee344c"/><stop offset="0.45" stop-color="#ee2e46"/><stop offset="0.59" stop-color="#ee273f"/><stop offset="1" stop-color="#ee253d"/></linearGradient><linearGradient id="linear-gradient-2" x1="121.03" y1="47.84" x2="196.56" y2="47.84" xlink:href="#linear-gradient"/><linearGradient id="linear-gradient-3" x1="209.3" y1="47.84" x2="294.84" y2="47.84" xlink:href="#linear-gradient"/><linearGradient id="linear-gradient-4" x1="305.5" y1="47.84" x2="362.05" y2="47.84" xlink:href="#linear-gradient"/><linearGradient id="linear-gradient-5" x1="374.45" y1="47.84" x2="444.78" y2="47.84" xlink:href="#linear-gradient"/></defs><g id="Layer_2" data-name="Layer 2"><g id="Layer_1-2" data-name="Layer 1"><path class="cls-1" d="M81.51,4.29a18.11,18.11,0,0,0-6.89,8.58L51.35,71.5,26.65,10.27a13.5,13.5,0,0,0-3.12-4.81A15.21,15.21,0,0,0,12.87,1H0V75.92A18,18,0,0,0,5.52,89.18a18.29,18.29,0,0,0,13.33,5.46H19v-65L38.35,82.42a18.17,18.17,0,0,0,7,8.9A18.66,18.66,0,0,0,56,94.64h3.25l24-65.26V75.92a18,18,0,0,0,5.52,13.26,18.29,18.29,0,0,0,13.33,5.46V1H92A18.41,18.41,0,0,0,81.51,4.29Z"/><path class="cls-2" d="M177.84,18.72V55.51q0,11.18-4.94,16.71t-14,5.52q-9.24,0-14.11-5.52t-4.87-16.71V0a18.29,18.29,0,0,0-13.33,5.46A18,18,0,0,0,121,18.72V55.51q0,19.77,10.2,30t27.24,10.2a42,42,0,0,0,19.69-4.49,31.7,31.7,0,0,0,13.52-13.51q4.88-9,4.88-22.17V0A18.05,18.05,0,0,0,183.3,5.46,18.05,18.05,0,0,0,177.84,18.72Z"/><path class="cls-3" d="M268.06,19.7l-19,55.77L223.73.45A13.6,13.6,0,0,0,212,6.5a13.59,13.59,0,0,0-1.82,13.07l21.84,61.49a20.53,20.53,0,0,0,7.73,10.27,20.82,20.82,0,0,0,12.29,3.9h9.23L294.84.45a27.37,27.37,0,0,0-16.45,5.33A28.33,28.33,0,0,0,268.06,19.7Z"/><path class="cls-4" d="M309.72,4.68A14.08,14.08,0,0,0,305.5,15V80.67a13.91,13.91,0,0,0,1.17,5.65,14.68,14.68,0,0,0,7.73,7.74,13.63,13.63,0,0,0,5.53,1.17h27.56A14.12,14.12,0,0,0,357.76,91a13.93,13.93,0,0,0,4.29-10.33V80H324.48V54.53h19a14.11,14.11,0,0,0,10.27-4.22A13.81,13.81,0,0,0,358,40.1H324.48V15.53h23a14,14,0,0,0,10.27-4.29A14,14,0,0,0,362.05,1V.45H319.93A13.91,13.91,0,0,0,309.72,4.68Z"/><path class="cls-5" d="M421.12,57.39q11.31-2.46,17.29-9.68t6-18q0-13.12-8.65-21.19T410.59.45H393.43A18.35,18.35,0,0,0,380,6a18.31,18.31,0,0,0-5.52,13.45V76.24a18.86,18.86,0,0,0,19,19V58.3h8.32L418.26,86a18.88,18.88,0,0,0,6.95,6.77,18.63,18.63,0,0,0,9.3,2.47h10.27Z"/></g></g></svg>